# xmcd
#
# Track frame offsets: 
#        150
#        13138
#        26038
#        40263
#        55625
#        69263
#        86338
#        100613
#        113638
#        125575
#        141913
#        157738
#
# Disc length: 2268 seconds
#
# Revision: 1
# Processed by: cddbd v1.5.1PL2 Copyright (c) Steve Scherf et al.
# Submitted via: ExactAudioCopy v0.90b2
#
DISCID=8e08da0c
DTITLE=Various Artist - Today's Hot Country Hits - Disc 3
DYEAR=1994
DGENRE=Country
TTITLE0=Mark Collie - Let Her Go
TTITLE1=Mark Chesnutt - Blame It On Texas
TTITLE2=McBride And The Ride - Every Step Of The Way
TTITLE3=Lionel Cartwright - I Watched It All (On My Radio)
TTITLE4=Skip Ewig - It's You Again
TTITLE5=The Mavericks - This Broken Heart
TTITLE6=Patty Loveless - On Down The Line
TTITLE7=Oak Ridge Boys - No Matter How High
TTITLE8=Marty Stuart - Hilbilly Rock
TTITLE9=Steve Wariner - The Domino Theory
TTITLE10=George Jones - I Don't Need Your Rockin' Chair
TTITLE11=Tracy Byrd - That's The Thing About A Memory
EXTD=YEAR: 1994
EXTT0=
EXTT1=
EXTT2=
EXTT3=
EXTT4=
EXTT5=
EXTT6=
EXTT7=
EXTT8=
EXTT9=
EXTT10=
EXTT11=
PLAYORDER=
